<?xml version="1.0" encoding="utf-8"?>
<!-- Generator: Adobe Illustrator 22.0.0, SVG Export Plug-In . SVG Version: 6.00 Build 0)  -->
<svg version="1.1" id="Layer_1" xmlns="http://www.w3.org/2000/svg" xmlns:xlink="http://www.w3.org/1999/xlink" x="0px" y="0px"
	 viewBox="0 0 1280 800" style="enable-background:new 0 0 1280 800;" xml:space="preserve">
<style type="text/css">
	.st0{clip-path:url(#SVGID_2_);fill:#F06A25;}
</style>
<g>
	<g>
		<defs>
			<rect id="SVGID_1_" y="157" width="1280" height="467"/>
		</defs>
		<clipPath id="SVGID_2_">
			<use xlink:href="#SVGID_1_"  style="overflow:visible;"/>
		</clipPath>
		<path class="st0" d="M610,157c199,0,397.9,0,596.9,0c22.8,0,45.5,0.4,68.3,0.3c4,0,4.8,1.1,4.8,4.3c-0.1,115.1-0.1,230.3,0,345.4
			c0,3.3-1.1,4.2-5,4.1c-38-0.8-76,1.1-114.1,1.1c-384.4-0.1-768.7-0.1-1153.1-0.1c-9.1,0-7.8,1.1-7.8-6.5c0-114,0-227.9,0-341.9
			c0-7.5-1.2-6.7,7.7-6.7C208.5,157,409.2,157,610,157L610,157z M231.3,508.1c73.1,0,146.1,0,219.2,0.1c4.6,0,6.3-0.5,6.3-5
			c-0.2-112.3-0.2-224.6,0-336.9c0-4.1-1.2-5.2-6.1-5.2c-146.5,0.1-293,0.1-439.5,0c-4.7,0-6.3,0.7-6.3,5C5,278.4,5,390.7,4.8,503.1
			c0,4.2,1.3,5.1,6.1,5.1C84.4,508,157.8,508.1,231.3,508.1 M1183.5,412.7c-0.7-1.2-1.1-1.9-1.5-2.6c-6.7-12.4-12.8-24.9-20.1-37
			c-30.9-51.4-65.9-101-98.6-151.6c-1.6-2.4-3.7-3.1-6.7-3.1c-7.3,0.1-14.5,0-21.8,0c-8.1,0-8.1,0-8.1,6.9c0,71.2,0,142.3,0.1,213.5
			c0,4.6-2.4,10.4,1.1,13.5c3.8,3.2,10.8,1.1,16.4,1.1c12.3,0.2,12.4,0.1,12.3-10.5c-0.3-61,1.1-122.1-2.6-183.1
			c-0.1-0.8-0.7-2.1,1.7-2.5c1.2,2,2.5,4.2,3.7,6.4c6.3,11.4,12.1,23,18.9,34.2c31.3,51.2,65.5,101.2,98,151.8
			c1.7,2.6,3.7,3.9,7.4,3.7c6.9-0.2,13.8-0.3,20.6,0c4.9,0.2,6.3-1,6.3-5.2c-0.2-46.1-0.1-92.2-0.1-138.3c0-28.9-0.1-57.7,0.1-86.6
			c0-3.6-0.9-5.2-5.5-5c-6.3,0.3-12.6,0.2-18.8,0c-4.1-0.1-5.4,1.3-5.4,4.7c0.8,61.7-2.1,123.4,3.4,185
			C1184.5,409.4,1185.1,410.7,1183.5,412.7 M606.1,336.8c0,36.8,0.1,73.6-0.1,110.4c0,4.2,0.7,6.5,6.5,6.4c4.9-0.1,9.8,0.7,14.7,1
			c25.7,1.2,51.3,2,76.8-2.1c49.6-8.1,80.8-33.1,95-73.6c10.1-28.7,10.7-57.9,2.4-86.9c-6.6-23.1-20.7-42.5-44.2-56.3
			c-22.1-13-47.2-17.4-73.4-18.2c-24-0.7-47.8,0.8-71.6,3.7c-4.7,0.6-6.2,1.7-6.2,5.7C606.2,263.5,606.1,300.1,606.1,336.8
			 M847.9,335.7c0,20.2,0,40.5,0,60.7c0,17.4,0.1,34.8-0.1,52.2c0,3.6,1.2,5.2,5.7,4.9c4.5-0.3,9-0.1,13.5-0.1
			c37.1,0,74.2-0.1,111.3,0.1c5.4,0,7.9-0.8,7.3-5.9c-0.5-4.4-0.5-9,0-13.4c0.5-4.7-1.1-6.2-6.9-6.1c-31.2,0.3-62.4,0.1-93.7,0.2
			c-3.7,0-5.7-0.3-5.6-4.2c0.2-25.5,0.2-51.1,0-76.6c0-3.4,1.5-4.4,5.2-4.1c1.2,0.1,2.4,0,3.5,0c26.9,0,53.8-0.1,80.7,0.1
			c4.5,0,6.4-0.9,6-5c-0.4-4.6-0.5-9.3,0-13.9c0.5-5-1.2-6.5-7.4-6.5c-27.5,0.3-55,0-82.5,0.2c-4.5,0-5.6-1-5.6-4.7
			c0.2-21.2,0.3-42.5-0.1-63.7c-0.1-4.9,1.6-6,7.2-5.9c29.3,0.2,58.5,0,87.8,0.2c4.8,0,6-1.1,5.7-5c-0.4-5.1-0.4-10.3,0-15.4
			c0.3-4.1-1.3-5.3-6.2-5.3c-39.5,0.2-78.9,0.2-118.4,0c-5.8,0-7.8,1.2-7.7,6.4C848,261.7,847.9,298.7,847.9,335.7 M550.6,336.3
			c0-37.6-0.1-75.3,0.1-112.9c0-4-1.3-5.1-5.9-4.9c-6.7,0.3-13.4,0.3-20,0c-4.5-0.2-6,0.8-5.9,4.9c0.3,19.1,0.1,38.1,0.1,57.2
			c0,55.7,0.1,111.4-0.2,167.1c0,4.9,1.6,6.2,7.2,5.9c6.2-0.4,12.6-0.3,18.8,0c4.5,0.2,5.9-0.8,5.9-4.8
			C550.5,411.2,550.6,373.7,550.6,336.3"/>
		<path class="st0" d="M761.2,575.7c0.1-3-0.2-5.3,4.1-5c4.5,0.3,3,2.9,3,4.7c0,9.6-0.1,19.2-0.3,28.8c-0.4,15.9-15.5,24-33,17.7
			c-2.2-0.8-3.8-1.5-2.8-3.9c1-2.6,2.7-2.2,4.9-1.3c1.4,0.5,3,0.9,4.5,1.1c13.2,1.8,19.4-3.2,18.2-15.3c-4.7,4.1-10.1,6-16.5,5
			c-4.6-0.8-8.4-2.7-11.2-5.9c-7.2-8-5.7-21.1,3.2-27.6C743.2,568.1,752.6,568.5,761.2,575.7 M760.2,589.1c0-1.5,0.1-3,0-4.5
			c-0.7-6.3-7.2-10.3-14.5-8.9c-6,1.2-10.2,7.2-9.9,14.2c0.4,6.8,4.5,11.4,11,12.2C755.4,603.1,760.2,598.4,760.2,589.1"/>
		<path class="st0" d="M972.5,603.2c-1.3,0.9-2.5,1.9-3.9,2.8c-9.3,5.7-21.7,2.1-24.1-7.3c-2.1-8.5-0.7-17.2-0.9-25.8
			c-0.1-3,2.8-1.9,4.8-2.2c2.8-0.3,3.2,1,3.2,3c0.2,7.4-0.8,14.9,0.7,22.3c0.7,3.6,2.9,6.2,7.5,6.6c4.6,0.4,8.5-0.7,10.9-4.4
			c1.3-2,1.6-4,1.6-6.2c0-6,0.1-11.9-0.1-17.9c-0.1-2.6,1-3.4,4-3.4c2.9,0,4.2,0.6,4.2,3.3c-0.1,9.9,0.2,19.9,0.1,29.8
			c0,1.5,1.5,3.8-2.4,4c-3.4,0.2-5.3-0.5-5-3.7C973.3,603.9,972.9,603.7,972.5,603.2"/>
		<path class="st0" d="M149.4,589.7c0,10.7-9.2,18.8-21.5,18.8c-11.9,0-21.3-7.8-21.4-17.8c-0.1-12.5,8.6-20.9,21.6-21
			C140.9,569.7,149.4,577.7,149.4,589.7 M141.2,589.3c-0.4-1.9-0.5-4-1.2-5.8c-1.9-5.4-6-8.1-11.8-8.2c-6-0.1-10.3,2.8-12.4,8.2
			c-1.9,5-1.5,9.8,1.6,14.4c4.7,6.9,14.8,7.3,20.4,0.8C140.2,595.9,141,592.7,141.2,589.3"/>
		<path class="st0" d="M1063.5,589.7c0.3-12,9.5-20.2,22.3-19.8c12.4,0.3,20.9,8.5,20.8,20c-0.2,10.8-9.9,18.9-22.4,18.7
			C1072.1,608.3,1063.2,600.2,1063.5,589.7 M1098,588.4c-0.3-2.1-0.6-5.5-3-8.5c-5-6.3-15.5-6.4-20.2,0c-4.3,6-4.5,12.3-0.1,18.3
			c4.8,6.6,14.7,6.8,20.1,0.4C1097,596,1097.8,593,1098,588.4"/>
		<path class="st0" d="M898,589.7c0,10.6-9.3,18.8-21.5,18.9c-12,0.1-21.4-7.7-21.5-17.7c-0.1-12.4,8.6-20.9,21.5-21.1
			C889.3,569.7,897.9,577.7,898,589.7 M889.4,589.5c0.1-10.3-7.7-16.5-17.1-13.7c-5.7,1.7-9.6,7.8-9.1,14.3
			c0.5,6.9,4.8,11.9,11.3,13C882.5,604.5,889.3,598.3,889.4,589.5"/>
		<path class="st0" d="M522.2,603.7c-3.9,3.2-8.1,5-13.4,4.8c-5.8-0.2-10.2-2.4-12.4-7c-2.1-4.4,0-9.8,4.6-12.9
			c4.7-3.1,10.3-3.9,16-4.4c1.6-0.1,3.9,0.5,4.6-1.4c0.6-1.8-0.2-3.6-1.7-5.1c-4.3-4.1-9.6-2.6-14.8-1.7c-1.9,0.3-4,3-5.5-0.7
			c-1.3-3.2,1.5-3.3,3.5-3.9c4.6-1.5,9.4-2.2,14.4-1.3c7.1,1.4,11.2,4.6,11.8,10.8c0.8,8.1,0.8,16.2,1.1,24.3
			c0.1,1.2,0.1,2.5-1.9,2.3c-1.9-0.2-4.5,1.2-5.5-1.5C522.9,605.4,522.6,604.7,522.2,603.7 M522.3,593.4c-0.7-1.5,1.8-4.7-2.8-4.5
			c-4.1,0.1-8.2,0.4-11.7,2.5c-3.5,2-4.7,4.8-3.3,8.1c1.4,3.3,4.6,4.2,8.5,3.8C518.8,602.7,522,599.4,522.3,593.4"/>
		<path class="st0" d="M289.1,575.9c5.8-5.6,12.1-7.5,19.5-5.1c7.4,2.4,9.8,7.7,9.9,13.9c0.1,6.6-0.1,13.3,0.1,19.9
			c0.1,2.8-1.2,3.3-4.1,3.3c-2.9,0-4.3-0.6-4.2-3.3c0.2-6.3,0.2-12.6,0-18.9c-0.2-6.5-3.5-9.8-9.5-9.9c-6.5-0.1-11.1,3.5-11.4,9.8
			c-0.3,6.3-0.2,12.6-0.1,18.9c0.1,2.5-0.6,3.6-3.9,3.5c-2.9-0.1-4.2-0.6-4.2-3.3c0-10.4-0.2-20.9-0.3-31.3c0-1.2,0.1-2.5,2-2.4
			c1.7,0.1,4.1-1.1,5.1,1.2C288.6,573.1,288.7,574.2,289.1,575.9"/>
		<path class="st0" d="M466.6,590.6c-3.9,0-7.9,0.2-11.8,0c-3.6-0.2-3.8,1.3-3.2,3.7c1.4,5.4,7.7,9.2,15,8.9
			c2.9-0.1,5.8-0.7,8.7-1.2c1.7-0.3,3.1-0.5,3.5,1.5c0.3,1.4,0.8,2.5-1.7,3.5c-10.4,4-23.7,1.7-29.9-5.6c-5.9-6.8-4.8-19.5,2.1-26
			c5.6-5.3,15.2-6.9,22.6-3.9c6.4,2.6,11.1,10.4,10.3,16.7c-0.2,1.9-1.1,2.6-3.3,2.6C474.8,590.5,470.7,590.6,466.6,590.6
			 M462.9,585.5c2.4,0,4.7-0.2,7,0c4,0.4,4.8-1,3.7-3.9c-1.4-3.7-3.9-6.2-8.6-6.5c-5.1-0.4-9.1,1.6-11.8,5.2
			c-1.1,1.4-2.1,3.1-1.1,4.6c0.8,1.2,2.9,0.5,4.3,0.6C458.6,585.6,460.7,585.5,462.9,585.5"/>
		<path class="st0" d="M358.1,590.6c-3.9,0-7.9,0.1-11.8,0c-2.8-0.1-3.3,0.9-2.8,3c1.3,5.9,7.9,10.1,15.7,9.6
			c2.9-0.2,5.8-0.7,8.6-1.3c2-0.4,3,0.2,3.4,1.8c0.3,1.3,0.8,2.5-1.5,3.1c-9.1,2.4-18.1,3.4-26.3-2c-8.4-5.6-9.1-13.2-6.8-21.2
			c2-7.2,7.3-12.1,16.3-13.4c14.3-2,22.3,7.7,21.5,18.5c-0.2,1.9-1.5,2-3.2,2C366.7,590.6,362.4,590.6,358.1,590.6 M354.9,585.5
			c2.7,0,5.5-0.1,8.2,0c3.1,0.2,3.6-0.8,2.9-3.2c-1.2-3.7-3.3-6.4-8-7.1c-5.4-0.8-9.5,1.2-12.5,4.9c-1.2,1.4-2.1,3.1-1.4,4.6
			c0.8,1.6,3.2,0.6,4.8,0.7C350.9,585.6,352.9,585.5,354.9,585.5"/>
		<path class="st0" d="M173.8,575.8c2.2-1.6,3.3-2.5,4.6-3.2c9.6-6,22.3-2.1,24.7,7.8c2,8.3,0.5,16.9,0.8,25.3
			c0.1,3.1-2.9,1.8-4.8,2.1c-2.5,0.3-3.4-0.7-3.4-2.8c0.1-6.8,0.3-13.6-0.1-20.4c-0.6-7.9-9.2-11.5-16.3-7.1
			c-3.4,2.1-4.6,5.2-4.6,8.7c0,6-0.1,11.9,0.1,17.9c0.1,2.6-0.5,3.9-4.1,3.8c-3.5,0-4.2-1.2-4.1-3.8c0.1-9.6-0.2-19.2-0.1-28.8
			c0-1.5-1.8-4.1,2.4-4.5C172.9,570.3,174.2,571.8,173.8,575.8"/>
		<path class="st0" d="M1130.5,576.5c6.1-5.5,11.6-7.6,18.4-6.2c7.1,1.5,11.2,5.5,11.8,12.7c0.6,7.4,0.2,14.9,0.5,22.4
			c0.1,3.1-2.4,2.4-4.4,2.5c-2.3,0.1-4.2,0-4.1-2.8c0.2-6.1,0.1-12.3,0-18.4c-0.1-6.9-3.3-10.7-9-10.9c-6.8-0.3-11.8,4.2-12,11.1
			c-0.2,5.6-0.2,11.3,0,16.9c0.1,2.7-0.1,4.3-4.2,4.2c-4.4,0-4-2.1-4-4.5c0-9.1-0.1-18.2,0.1-27.3c0-1.9-2.3-4.8,2.5-5.4
			C1130.1,570.2,1131.4,571.9,1130.5,576.5"/>
		<path class="st0" d="M680.5,576.5c4.3-4.5,8.7-6.5,14-6.7c7.4-0.3,13.6,3.7,15.3,10.1c2.2,8.5,0.7,17.1,1,25.7
			c0.1,3.2-3,1.8-4.8,2c-2.5,0.3-3.4-0.6-3.4-2.8c0.2-5,0.1-9.9,0-14.9c0-2-0.1-4-0.4-5.9c-0.9-5.5-4.3-8.5-9.5-8.4
			c-6.2,0.1-11,4.1-11.2,9.5c-0.2,6.3-0.2,12.6,0,18.9c0.1,2.7-0.7,3.8-4.2,3.8c-3.3,0-4.4-0.8-4.3-3.7c0.2-9.6,0-19.2,0.2-28.8
			c0-1.7-2-4.4,2.7-4.7C680.5,570.3,680.5,572.7,680.5,576.5"/>
		<path class="st0" d="M594.5,576.4c3.1-2.8,5.4-4.8,8.7-5.7c10.7-3,20.3,2.1,21.3,12c0.7,7.4,0.1,14.9,0.3,22.4
			c0.1,2.9-2,2.6-4.2,2.7c-2.4,0.1-4.1-0.1-4-2.8c0.2-6.6,0.1-13.3-0.2-19.9c-0.2-4.2-1.8-7.9-7.3-9.1c-7.2-1.6-13.4,2.7-13.6,9.6
			c-0.2,6,0,11.9,0,17.9c0,2.3,0.6,4.4-3.9,4.4c-4.6,0-4.4-2-4.4-4.7c0.1-9.3-0.1-18.6,0.1-27.9c0-1.7-1.8-4.4,2.8-4.7
			C594.9,570.3,594.3,572.9,594.5,576.4"/>
		<path class="st0" d="M1014.8,608.5c-7-0.1-11.5-3.5-12-10c-0.4-5.9-0.2-11.9-0.2-17.9c0-2.6,0.4-5.2-4.3-4.8
			c-2.2,0.2-2.4-1.2-2.4-2.6c0-1.6,0.6-2.7,2.6-2.5c4.4,0.5,4-1.9,4.1-4.3c0-1.6-0.9-3.6,1.1-4.6c1.8-1,4.1-1.8,6.1-1.1
			c1.9,0.7,1,2.7,0.8,4.1c-0.8,4.7,1,6.8,6.9,6c2.2-0.3,4.8-0.7,4.7,2.7c-0.1,3.4-3.1,2.6-5.1,2.4c-5.2-0.5-7,1-6.5,5.5
			c0.5,5.3,0,10.6,0.3,15.9c0.1,3,1.3,5.7,5.9,5.5c2.4-0.1,4.6-0.3,4.6,2.8c0,3.2-2.7,2.6-4.8,3
			C1016,608.5,1015.4,608.5,1014.8,608.5"/>
		<path class="st0" d="M824.5,608.5c-3.1-0.1-6.2-0.6-9.2-1.5c-2.6-0.8-3.2-1.7-2.3-4c1-2.5,2.5-1.8,4.4-1.1c3.3,1,6.6,1.9,10.2,1.1
			c2.7-0.6,4.6-1.9,5.1-4.3c0.4-2.3-0.5-4.3-3.1-5.4c-2.4-1.1-5-2-7.4-3c-6.6-2.7-9.6-6.4-8.8-11.1c0.8-5,5.6-8.5,12.8-9.3
			c3.6-0.4,7,0.3,10.3,1.3c2.3,0.7,2.4,1.8,1.7,3.4c-0.7,1.8-1.8,2.3-3.9,1.5c-2.5-1-5.3-1.1-8.1-0.8c-2.6,0.3-4.4,1.5-5,3.6
			c-0.7,2.2,0.6,3.9,2.8,5c2,1,4.2,1.8,6.3,2.6c8.4,3.2,11.7,7.4,10.1,13.2C839,605.1,832.7,608.5,824.5,608.5"/>
		<path class="st0" d="M417.9,580.1c0-7.8,0.2-15.6-0.1-23.3c-0.1-2.9,1.5-3.1,4.2-3.2c2.8-0.1,4.2,0.4,4.1,3.2
			c-0.2,15.9-0.1,31.8,0,47.7c0,2.7-1.2,3.3-4.1,3.3c-2.9,0-4.2-0.5-4.2-3.3C418,596.3,417.9,588.2,417.9,580.1"/>
		<path class="st0" d="M923.3,581.2c0,7.6-0.1,15.2,0.1,22.8c0.1,2.7-0.8,3.7-4.2,3.7c-3.6,0-4.2-1.2-4.2-3.8
			c0.1-15.6,0.1-31.1,0-46.7c0-2.8,0.9-3.7,4.3-3.7c3.6,0,4.1,1.2,4.1,3.8C923.2,565.3,923.3,573.2,923.3,581.2"/>
		<path class="st0" d="M557.5,576.5c3-3.6,6.1-5.8,10.3-6.5c1.9-0.3,3.9-0.6,3.8,1.6c-0.1,1.6,1.8,3.9-2.1,4.8
			c-9.2,2.1-11.1,4.1-11.5,12c-0.3,5.1-0.2,10.3,0,15.4c0.1,2.6-0.4,3.9-4,3.9c-3.4,0-4.2-1.1-4.2-3.8c0.2-9.9,0.1-19.9,0-29.8
			c0-1.9-0.5-3.6,3-3.6c3,0,4.5,0.6,4.2,3.3C556.9,574.4,557.1,574.9,557.5,576.5"/>
		<path class="st0" d="M224.1,580.1c0-7.6,0.1-15.2-0.1-22.8c-0.1-2.7,0.6-3.8,4.1-3.8c3.4,0,4.2,1,4.2,3.7
			c-0.1,15.6-0.1,31.1,0,46.7c0,2.7-0.6,3.8-4.1,3.8c-3.5,0-4.2-1.1-4.2-3.8C224.3,596,224.1,588.1,224.1,580.1"/>
		<path class="st0" d="M1046.3,589.1c0,5.1-0.2,10.3,0.1,15.4c0.1,2.8-1.3,3.3-4.1,3.3c-2.9,0-4.2-0.5-4.1-3.3
			c0.2-10.3,0.1-20.5,0-30.8c0-2.4,1-3.2,3.8-3.1c2.6,0.1,4.6,0.1,4.5,3.1C1046.2,578.9,1046.3,584,1046.3,589.1"/>
		<path class="st0" d="M644.8,589c0-5,0.1-9.9-0.1-14.9c-0.1-2.5,0.7-3.6,3.9-3.5c2.8,0.1,4.4,0.4,4.3,3.2
			c-0.2,10.3-0.2,20.6,0,30.8c0.1,3-1.8,3-4.3,3.1c-3.1,0.1-4.1-0.8-4-3.4C645,599.3,644.8,594.2,644.8,589"/>
		<path class="st0" d="M260.9,589.2c0,5.1-0.2,10.3,0.1,15.4c0.1,2.9-1.6,3.1-4.3,3.2c-2.9,0-4.1-0.6-4.1-3.3
			c0.2-10.1,0.2-20.2,0-30.3c0-2.5,0.8-3.5,4-3.5c3.3,0,4.5,0.8,4.4,3.7C260.8,579.3,260.9,584.3,260.9,589.2"/>
		<path class="st0" d="M261.8,560c-0.1,2.7-1.8,4.2-4.6,4.4c-2.9,0.2-5-1.2-5.2-3.7c-0.3-2.7,1.6-4.4,4.8-4.5
			C259.7,556.2,261.4,557.7,261.8,560"/>
		<path class="st0" d="M648.9,556.2c2.9,0.3,4.7,1.6,4.7,4.1c0,2.6-1.9,4.1-4.7,4.1c-3.1,0-5.2-1.6-5-4.3
			C644.1,557.7,646,556.3,648.9,556.2"/>
		<path class="st0" d="M1046.9,560.9c-0.2,2.2-2.1,3.5-4.9,3.5c-2.8,0-4.8-1.5-4.7-4c0.1-2.7,2-4.3,5.2-4.1
			C1045.5,556.4,1047,558,1046.9,560.9"/>
		<path class="st0" d="M426.2,466.6H22.7c6-7.2,11.4-13.8,16.9-20.3c18.7-22.3,37.4-44.7,56.1-67c1.7-2,2.8-4.2,6.6-1.6
			c3.2,2.2,3.9,3.4,1.3,6.6c-19.6,23.2-39,46.5-58.4,69.9c-1,1.2-3.1,2.3-2.4,3.7c0.9,1.9,3.5,0.9,5.3,0.9c117.8,0,235.7,0,353.5,0
			c1.9,0,4.4,0.8,5.4-0.7c0.9-1.5-1.3-2.9-2.4-4.2c-20.9-26.7-41.9-53.3-62.7-80c-2.5-3.2-5.2-4.1-9.5-4.1
			c-73.8,0.1-147.7,0-221.5,0.2c-5.4,0-7.2-0.8-7.2-5.8c0.3-50.1,0.2-100.2,0-150.3c0-4.2,1-5.5,6.3-5.4c76.6,0.2,153.2,0.2,229.8,0
			c4.7,0,6.3,0.7,6.3,5c-0.2,43.1-0.3,86.3,0,129.4c0,5.1-2.5,5.2-6.9,5c-2.4-0.1-3-1-2.9-2.8c0.1-1.2,0-2.3,0-3.5
			c0-40-0.1-80,0.1-119.9c0-3.7-0.9-5-5.7-5c-70.5,0.1-141,0.1-211.5,0c-4.7,0-5.7,1.2-5.7,5c0.2,45.1,0.2,90.2,0,135.4
			c0,4.1,1.5,4.8,5.9,4.8c72.7-0.1,145.3,0,218-0.2c5,0,7.7,1.4,10.3,4.8c25,32,50.1,63.8,75.2,95.7
			C423.9,463.2,424.8,464.6,426.2,466.6"/>
		<path class="st0" d="M141.2,429.7c9.2,0,18.4,0,27.6,0c1.9,0,4.2-0.5,4.1,2.2c-0.1,2.7-2.4,2.1-4.2,2.1c-18.2,0-36.5,0-54.7,0
			c-1.7,0-4.2,0.8-4.4-1.9c-0.2-3.1,2.6-2.3,4.5-2.3C123.1,429.7,132.2,429.7,141.2,429.7"/>
		<path class="st0" d="M306.2,429.7c8.4,0,16.8,0,25.2,0c1.9,0,4.2-0.5,4.2,2.1c0.1,2.6-2.1,2.3-4.1,2.3c-17.2,0-34.4,0-51.6,0
			c-1.9,0-4,0.3-3.9-2.4c0.1-2.4,2.1-2,3.7-2C288.6,429.7,297.4,429.7,306.2,429.7"/>
		<path class="st0" d="M224.8,434.1c-6.4,0-12.9,0-19.3,0c-1.9,0-4.1,0.5-4-2.2c0.1-2.2,1.7-2.2,3.6-2.2c13.3,0,26.6,0,39.9,0
			c1.8,0,3,0.1,3,2c0.1,2.1-1.1,2.4-3.2,2.4C238.1,434,231.4,434.1,224.8,434.1"/>
		<path class="st0" d="M147.8,393c-5.7,0-11.4,0.1-17.1,0c-1.7,0-4.2,0.8-4.3-1.9c-0.1-2.7,2.2-2.2,4.1-2.2c11.6,0,23.1,0,34.7,0
			c1.7,0,3.7-0.3,3.8,2c0.1,2.7-2.2,2.2-4.1,2.2C159.2,393.1,153.5,393.1,147.8,393"/>
		<path class="st0" d="M224.8,393c-5.3,0-10.5,0-15.8,0c-1.7,0-3.1-0.2-3.2-2c-0.1-1.8,1.1-2.2,3-2.2c10.7,0,21.5,0,32.2,0
			c1.9,0,2.9,0.5,2.9,2.3c-0.1,1.9-1.6,2-3.3,2C235.3,393,230,393,224.8,393"/>
		<path class="st0" d="M297.6,388.8c4.9,0,9.8,0,14.7,0c2,0,3.5,0.2,3.4,2.4c-0.1,1.9-1.7,1.9-3.3,1.9c-10,0-19.9,0-29.9,0
			c-1.9,0-2.9-0.5-3-2.2c-0.1-1.9,1.2-2.1,3-2.1C287.5,388.8,292.5,388.8,297.6,388.8"/>
		<path class="st0" d="M637.6,336.6c0-29.4,0.1-58.7-0.1-88.1c0-3.8,1.3-4.9,5.8-5.5c14.4-2.1,28.9-2.3,43.4-1.6
			c18.6,0.9,35.9,5.5,51,15c18.4,11.5,28.5,27.7,32.8,46.3c6.1,26.5,5.3,52.9-6.4,78.3c-13.8,30.2-40.8,46-78.4,49.5
			c-13.5,1.3-27,0.8-40.6,0c-5.3-0.3-7.7-1.5-7.6-6.7C637.8,394.7,637.6,365.7,637.6,336.6"/>
	</g>
</g>
</svg>
